<mxfile host="app.diagrams.net" modified="2023-09-20T12:12:09.001Z" agent="Mozilla/5.0 (Windows NT 10.0; Win64; x64) AppleWebKit/537.36 (KHTML, like Gecko) Chrome/116.0.0.0 Safari/537.36" etag="6yAbMxzu0IzNpZtSXzy9" version="21.7.5" type="github">
  <diagram name="Page-1" id="vt8Lw5nH4MmUUruRl9g7">
    <mxGraphModel dx="1004" dy="608" grid="1" gridSize="10" guides="1" tooltips="1" connect="1" arrows="1" fold="1" page="1" pageScale="1" pageWidth="850" pageHeight="1100" math="0" shadow="0">
      <root>
        <mxCell id="0" />
        <mxCell id="1" parent="0" />
        <mxCell id="BM7sBJLFDZ8WhbmVOFhz-1" value="Database and Authentication" style="whiteSpace=wrap;strokeWidth=2;verticalAlign=top;" vertex="1" parent="1">
          <mxGeometry x="310" y="20" width="630" height="104" as="geometry" />
        </mxCell>
        <mxCell id="BM7sBJLFDZ8WhbmVOFhz-2" value="PostgreSQL" style="whiteSpace=wrap;strokeWidth=2;" vertex="1" parent="1">
          <mxGeometry x="250" y="55" width="95" height="34" as="geometry" />
        </mxCell>
        <mxCell id="BM7sBJLFDZ8WhbmVOFhz-3" value="Firebase" style="whiteSpace=wrap;strokeWidth=2;" vertex="1" parent="1">
          <mxGeometry x="789" y="55" width="76" height="34" as="geometry" />
        </mxCell>
        <mxCell id="BM7sBJLFDZ8WhbmVOFhz-4" value="Pattern Recognition" style="whiteSpace=wrap;strokeWidth=2;verticalAlign=top;" vertex="1" parent="1">
          <mxGeometry x="989" y="138" width="142" height="296" as="geometry" />
        </mxCell>
        <mxCell id="BM7sBJLFDZ8WhbmVOFhz-5" value="Yolo" style="whiteSpace=wrap;strokeWidth=2;" vertex="1" parent="1">
          <mxGeometry x="1037" y="177" width="46" height="34" as="geometry" />
        </mxCell>
        <mxCell id="BM7sBJLFDZ8WhbmVOFhz-6" value="Mediapipe" style="whiteSpace=wrap;strokeWidth=2;" vertex="1" parent="1">
          <mxGeometry x="1015" y="281" width="89" height="34" as="geometry" />
        </mxCell>
        <mxCell id="BM7sBJLFDZ8WhbmVOFhz-7" value="TFlite" style="whiteSpace=wrap;strokeWidth=2;" vertex="1" parent="1">
          <mxGeometry x="1030" y="365" width="58" height="34" as="geometry" />
        </mxCell>
        <mxCell id="BM7sBJLFDZ8WhbmVOFhz-8" value="Backend" style="whiteSpace=wrap;strokeWidth=2;verticalAlign=top;" vertex="1" parent="1">
          <mxGeometry x="468" y="144" width="471" height="288" as="geometry" />
        </mxCell>
        <mxCell id="BM7sBJLFDZ8WhbmVOFhz-9" value="Flask" style="whiteSpace=wrap;strokeWidth=2;" vertex="1" parent="1">
          <mxGeometry x="493" y="250" width="52" height="34" as="geometry" />
        </mxCell>
        <mxCell id="BM7sBJLFDZ8WhbmVOFhz-10" value="OpenCV" style="whiteSpace=wrap;strokeWidth=2;" vertex="1" parent="1">
          <mxGeometry x="791" y="250" width="72" height="34" as="geometry" />
        </mxCell>
        <mxCell id="BM7sBJLFDZ8WhbmVOFhz-11" value="Frontend" style="whiteSpace=wrap;strokeWidth=2;verticalAlign=top;" vertex="1" parent="1">
          <mxGeometry x="264" y="211" width="126" height="104" as="geometry" />
        </mxCell>
        <mxCell id="BM7sBJLFDZ8WhbmVOFhz-12" value="React.js" style="whiteSpace=wrap;strokeWidth=2;" vertex="1" parent="1">
          <mxGeometry x="290" y="250" width="74" height="34" as="geometry" />
        </mxCell>
        <mxCell id="BM7sBJLFDZ8WhbmVOFhz-13" value="User Interface" style="curved=1;startArrow=none;endArrow=block;exitX=0.9992081925675675;exitY=0.49264705882352944;entryX=0.006911057692307692;entryY=0.49264705882352944;rounded=0;" edge="1" parent="1" source="BM7sBJLFDZ8WhbmVOFhz-12" target="BM7sBJLFDZ8WhbmVOFhz-9">
          <mxGeometry relative="1" as="geometry">
            <Array as="points" />
          </mxGeometry>
        </mxCell>
        <mxCell id="BM7sBJLFDZ8WhbmVOFhz-14" value="Process and Analyze" style="curved=1;startArrow=none;endArrow=block;exitX=1.0069110576923077;exitY=0.49264705882352944;entryX=-0.003363715277777778;entryY=0.49264705882352944;rounded=0;" edge="1" parent="1" source="BM7sBJLFDZ8WhbmVOFhz-9" target="BM7sBJLFDZ8WhbmVOFhz-10">
          <mxGeometry relative="1" as="geometry">
            <Array as="points" />
          </mxGeometry>
        </mxCell>
        <mxCell id="BM7sBJLFDZ8WhbmVOFhz-15" value="" style="curved=1;startArrow=none;endArrow=block;exitX=0.8174382133266201;exitY=-0.007352941176470588;entryX=-0.009086277173913044;entryY=0.4037690986020466;rounded=0;" edge="1" parent="1" source="BM7sBJLFDZ8WhbmVOFhz-10" target="BM7sBJLFDZ8WhbmVOFhz-5">
          <mxGeometry relative="1" as="geometry">
            <Array as="points">
              <mxPoint x="940" y="184" />
              <mxPoint x="990" y="184" />
            </Array>
          </mxGeometry>
        </mxCell>
        <mxCell id="BM7sBJLFDZ8WhbmVOFhz-16" value="" style="curved=1;startArrow=none;endArrow=block;exitX=0.9929470486111112;exitY=0.49264705882352944;entryX=0.06583103532931434;entryY=-0.014705882352941176;rounded=0;" edge="1" parent="1" source="BM7sBJLFDZ8WhbmVOFhz-10" target="BM7sBJLFDZ8WhbmVOFhz-6">
          <mxGeometry relative="1" as="geometry">
            <Array as="points">
              <mxPoint x="990" y="267" />
            </Array>
          </mxGeometry>
        </mxCell>
        <mxCell id="BM7sBJLFDZ8WhbmVOFhz-17" value="" style="curved=1;startArrow=none;endArrow=block;exitX=0.8174382133266201;exitY=0.9926470588235294;entryX=0.0038389008620689654;entryY=0.09145315916353691;rounded=0;" edge="1" parent="1" source="BM7sBJLFDZ8WhbmVOFhz-10" target="BM7sBJLFDZ8WhbmVOFhz-7">
          <mxGeometry relative="1" as="geometry">
            <Array as="points">
              <mxPoint x="940" y="350" />
              <mxPoint x="990" y="350" />
            </Array>
          </mxGeometry>
        </mxCell>
        <mxCell id="BM7sBJLFDZ8WhbmVOFhz-18" value="Detect and Track Human" style="curved=1;startArrow=none;endArrow=block;exitX=-0.009086277173913044;exitY=0.6082597640726979;entryX=1.0069110576923077;entryY=0.10902708011575743;rounded=0;" edge="1" parent="1" source="BM7sBJLFDZ8WhbmVOFhz-5" target="BM7sBJLFDZ8WhbmVOFhz-9">
          <mxGeometry relative="1" as="geometry">
            <Array as="points">
              <mxPoint x="990" y="205" />
              <mxPoint x="642" y="205" />
            </Array>
          </mxGeometry>
        </mxCell>
        <mxCell id="BM7sBJLFDZ8WhbmVOFhz-19" value="Detect Anomalies" style="curved=1;startArrow=none;endArrow=block;exitX=0.08273761192064606;exitY=0.9852941176470589;entryX=1.0069110576923077;entryY=0.8840641915700774;rounded=0;" edge="1" parent="1" source="BM7sBJLFDZ8WhbmVOFhz-6" target="BM7sBJLFDZ8WhbmVOFhz-9">
          <mxGeometry relative="1" as="geometry">
            <Array as="points">
              <mxPoint x="990" y="330" />
              <mxPoint x="642" y="330" />
            </Array>
          </mxGeometry>
        </mxCell>
        <mxCell id="BM7sBJLFDZ8WhbmVOFhz-20" value="Additional Processing" style="curved=1;startArrow=none;endArrow=block;exitX=0.0038389008620689654;exitY=0.6083694171731592;entryX=0.8281834100894099;entryY=0.9926470588235294;rounded=0;" edge="1" parent="1" source="BM7sBJLFDZ8WhbmVOFhz-7" target="BM7sBJLFDZ8WhbmVOFhz-9">
          <mxGeometry relative="1" as="geometry">
            <Array as="points">
              <mxPoint x="990" y="392" />
              <mxPoint x="642" y="392" />
            </Array>
          </mxGeometry>
        </mxCell>
        <mxCell id="BM7sBJLFDZ8WhbmVOFhz-21" value="Store Data" style="curved=1;startArrow=none;endArrow=block;exitX=0.14;exitY=0.001;entryX=1.000657894736842;entryY=0.28316585143320566;rounded=0;exitDx=0;exitDy=0;exitPerimeter=0;" edge="1" parent="1" source="BM7sBJLFDZ8WhbmVOFhz-9">
          <mxGeometry relative="1" as="geometry">
            <Array as="points">
              <mxPoint x="678" y="70" />
              <mxPoint x="375" y="70" />
            </Array>
            <mxPoint x="725.2064250035178" y="259" as="sourcePoint" />
            <mxPoint x="350" y="73.63732667678588" as="targetPoint" />
          </mxGeometry>
        </mxCell>
        <mxCell id="BM7sBJLFDZ8WhbmVOFhz-22" value="" style="curved=1;startArrow=none;endArrow=block;exitX=0.9449299206599405;exitY=-0.007352941176470588;entryX=0.0949865394418249;entryY=1;rounded=0;" edge="1" parent="1" source="BM7sBJLFDZ8WhbmVOFhz-9" target="BM7sBJLFDZ8WhbmVOFhz-3">
          <mxGeometry relative="1" as="geometry">
            <Array as="points">
              <mxPoint x="642" y="175" />
            </Array>
          </mxGeometry>
        </mxCell>
        <mxCell id="BM7sBJLFDZ8WhbmVOFhz-23" value="" style="curved=1;dashed=1;dashPattern=2 3;startArrow=none;endArrow=block;exitX=1.000657894736842;exitY=0.8083863446283296;entryX=0.41959031255906265;entryY=-0.007352941176470588;rounded=0;" edge="1" parent="1" source="BM7sBJLFDZ8WhbmVOFhz-2" target="BM7sBJLFDZ8WhbmVOFhz-12">
          <mxGeometry relative="1" as="geometry">
            <Array as="points">
              <mxPoint x="470" y="230" />
              <mxPoint x="190" y="88" />
            </Array>
          </mxGeometry>
        </mxCell>
      </root>
    </mxGraphModel>
  </diagram>
</mxfile>
